<svg width="100" height="106" viewBox="0 0 100 106" fill="none" xmlns="http://www.w3.org/2000/svg">
<path d="M99.3609 0.747113C98.9044 0.270042 98.2482 0 97.5634 0H2.43661C1.75183 0 1.09559 0.270042 0.639071 0.747113C0.173041 1.22418 -0.0552175 1.86328 0.0113586 2.51138L8.58057 93.3621C8.66617 94.3162 9.36996 95.1084 10.3401 95.3784L49.3247 105.91C49.534 105.973 49.7622 106 49.9905 106C50.2187 106 50.4375 105.973 50.6562 105.91L89.6694 95.3784C90.6395 95.1084 91.3338 94.3162 91.4289 93.3621L99.9886 2.51138C100.055 1.86328 99.827 1.22418 99.3609 0.747113ZM78.8462 32.0718H33.0423L34.136 43.8006H77.7429L74.4712 78.4648L49.981 85.4679L49.7432 85.3959L25.5383 78.4558L24.2163 64.3327H36.0762L36.5898 69.8145L50.1236 72.4969L63.4102 69.8145L64.8273 54.9803H23.3318L20.1076 20.8652H79.9019L78.8462 32.0718Z" fill="#445964"/>
</svg>
