<svg width="40" height="41" viewBox="0 0 40 41" fill="none" xmlns="http://www.w3.org/2000/svg">
<path d="M20.0493 10.3381C14.3895 10.3381 9.80756 14.9251 9.80756 20.5798C9.80756 26.2396 14.3945 30.8215 20.0493 30.8215C25.709 30.8215 30.291 26.2346 30.291 20.5798C30.291 14.9201 25.704 10.3381 20.0493 10.3381ZM20.0493 27.2275C16.3754 27.2275 13.4016 24.2521 13.4016 20.5798C13.4016 16.9076 16.377 13.9322 20.0493 13.9322C23.7215 13.9322 26.6969 16.9076 26.6969 20.5798C26.6985 24.2521 23.7232 27.2275 20.0493 27.2275Z" fill="#445964"/>
<path d="M28.2719 0.755018C24.5996 0.583713 15.5038 0.592029 11.8283 0.755018C8.59842 0.906365 5.74943 1.68638 3.45262 3.9832C-0.385944 7.82176 0.104686 12.9942 0.104686 20.5798C0.104686 28.3434 -0.327734 33.3961 3.45262 37.1764C7.30614 41.0283 12.5534 40.5244 20.0492 40.5244C27.7397 40.5244 30.3941 40.5294 33.1133 39.4766C36.8105 38.0413 39.6013 34.7366 39.874 28.8008C40.047 25.1269 40.037 16.0328 39.874 12.3572C39.5447 5.35031 35.7843 1.10095 28.2719 0.755018ZM34.0846 34.6368C31.5682 37.1531 28.0773 36.9286 20.001 36.9286C11.6852 36.9286 8.35061 37.0517 5.91741 34.6119C3.115 31.8227 3.62226 27.3439 3.62226 20.5532C3.62226 11.3643 2.67925 4.74659 11.9014 4.27425C14.0203 4.19941 14.644 4.17446 19.9777 4.17446L20.0526 4.22436C28.9155 4.22436 35.8692 3.29632 36.2866 12.5168C36.3814 14.6207 36.403 15.2527 36.403 20.5782C36.4014 28.7975 36.5577 32.152 34.0846 34.6368Z" fill="#445964"/>
<path d="M30.6967 12.3272C32.0185 12.3272 33.09 11.2557 33.09 9.93393C33.09 8.61216 32.0185 7.54065 30.6967 7.54065C29.375 7.54065 28.3035 8.61216 28.3035 9.93393C28.3035 11.2557 29.375 12.3272 30.6967 12.3272Z" fill="#445964"/>
</svg>
