<svg width="107" height="107" viewBox="0 0 107 107" fill="none" xmlns="http://www.w3.org/2000/svg">
<path d="M0 106.733V0H106.733V106.733H0Z" fill="#445964"/>
<path d="M69.7854 79.8926C71.837 83.225 74.0666 86.4181 78.7895 86.4181C82.7564 86.4181 84.8377 84.4465 84.8377 81.7189C84.8377 78.4546 82.6852 77.2954 78.3211 75.395L75.9285 74.3751C69.0234 71.4458 64.431 67.7754 64.431 60.0225C64.431 52.8773 69.901 47.4399 78.4485 47.4399C84.5353 47.4399 88.9083 49.5478 92.0629 55.0683L84.6094 59.8327C82.9699 56.9035 81.1969 55.7502 78.4485 55.7502C75.6438 55.7502 73.8679 57.5202 73.8679 59.8327C73.8679 62.6908 75.6468 63.8471 79.7531 65.617L82.1456 66.6369C90.284 70.1028 94.8735 73.6428 94.8735 81.6003C94.8735 90.1745 88.1019 94.8737 79.0119 94.8737C70.1204 94.8737 65.0714 90.4117 62.2607 84.8882L69.7854 79.8926ZM35.4352 80.1357C36.9354 82.8218 39.2154 84.8882 42.4944 84.8882C45.6312 84.8882 47.4367 83.649 47.4367 78.8312V47.4369H57.3184V80.3491C57.3184 90.3316 51.5282 94.8737 43.0726 94.8737C35.4323 94.8737 29.9177 89.6971 27.6704 84.8882L35.4352 80.1357Z" fill="white"/>
</svg>
