<svg width="116" height="106" viewBox="0 0 116 106" fill="none" xmlns="http://www.w3.org/2000/svg">
<path d="M45.1873 0C19.5842 4.27883 0 26.3841 0 53C0 79.6159 19.5842 101.721 45.1873 106C23.3701 98.1341 7.74207 77.3458 7.74207 53C7.74207 28.6542 23.3701 7.86588 45.1873 0ZM64.5173 1.75649C40.4755 1.75649 20.3339 18.1006 14.597 40.1891H114.443C108.703 18.1006 88.559 1.75649 64.5173 1.75649ZM13.5436 45.3135C13.2881 46.9968 13.1222 48.7058 13.0345 50.4378H116C115.912 48.7058 115.749 46.9968 115.491 45.3135H13.5436ZM13.0345 55.5622C13.1222 57.2942 13.2881 59.0032 13.5436 60.6865H115.491C115.746 59.0032 115.912 57.2942 116 55.5622H13.0345ZM14.597 65.8109C20.3339 87.8994 40.4755 104.244 64.5173 104.244C88.559 104.244 108.701 87.8994 114.437 65.8109H14.597Z" fill="#445964"/>
</svg>
